<?xml version="1.0" encoding="utf-8"?>
<!-- Generator: Adobe Illustrator 22.1.0, SVG Export Plug-In . SVG Version: 6.00 Build 0)  -->
<svg version="1.1" id="Layer_1" xmlns="http://www.w3.org/2000/svg" xmlns:xlink="http://www.w3.org/1999/xlink" x="0px" y="0px"
	 viewBox="0 0 1170 1170" style="enable-background:new 0 0 1170 1170;" xml:space="preserve">
<style type="text/css">
	.st0{fill:#FFFFFF;}
	.st1{font-family:'ArialMT';}
	.st2{font-size:52.1415px;}
	.st3{fill:#FFFF00;}
	.st4{fill:#C1272D;}
	.st5{clip-path:url(#SVGID_2_);}
	.st6{opacity:0.65;fill:#FFFFFF;enable-background:new    ;}
	.st7{font-size:35.5299px;}
	.st8{fill:#999999;}
	.st9{font-size:23.9191px;}
	.st10{opacity:0.9;}
	.st11{clip-path:url(#SVGID_4_);}
	.st12{font-family:'ArialNarrow-Bold';}
	.st13{font-size:80.314px;}
	.st14{font-size:76.087px;}
	.st15{font-size:71.8599px;}
	.st16{display:none;opacity:0.26;enable-background:new    ;}
	.st17{fill:none;stroke:#FFFFFF;stroke-miterlimit:10;}
	.st18{font-size:32.1266px;}
	.st19{fill:none;}
	.st20{font-size:54.9517px;}
	.st21{clip-path:url(#SVGID_6_);}
</style>
<g>
	<defs>
		<rect id="XMLID_3_" x="894" y="541" width="273.4" height="241"/>
	</defs>
	<clipPath id="XMLID_5_">
		<use xlink:href="#XMLID_3_"  style="overflow:visible;"/>
	</clipPath>
	<g transform="matrix(1 0 0 1 -6.103516e-05 0)" style="clip-path:url(#XMLID_5_);">
		
			<image style="overflow:visible;" width="1000" height="667" xlink:href="../../Downloads/safe-affordable-boston.jpg"  transform="matrix(0.3461 0 0 0.3838 864.1878 536)">
		</image>
	</g>
</g>
<g>
	<defs>
		<rect id="XMLID_2_" x="297.6" y="539" width="269.8" height="241"/>
	</defs>
	<clipPath id="XMLID_6_">
		<use xlink:href="#XMLID_2_"  style="overflow:visible;"/>
	</clipPath>
	<g style="clip-path:url(#XMLID_6_);">
		
			<image style="overflow:visible;" width="3840" height="2160" xlink:href="../../Downloads/AdobeStock_264928648.jpeg"  transform="matrix(0.1111 0 0 0.1161 233.0875 541.1036)">
		</image>
	</g>
</g>
<g>
	<defs>
		<rect id="XMLID_1_" y="51" width="1224" height="360"/>
	</defs>
	<clipPath id="XMLID_7_">
		<use xlink:href="#XMLID_1_"  style="overflow:visible;"/>
	</clipPath>
	<g transform="matrix(1 0 0 1 0 -1.525879e-05)" style="opacity:0.83;clip-path:url(#XMLID_7_);">
		
			<image style="overflow:visible;" width="2600" height="1733" xlink:href="../../Downloads/49628500837_618a72058b_3k.jpg"  transform="matrix(0.4788 0 0 0.5609 -4.5746 -214)">
		</image>
	</g>
	<use xlink:href="#XMLID_1_"  style="overflow:visible;fill:none;stroke:#231F20;stroke-miterlimit:10;"/>
</g>
<image style="overflow:visible;enable-background:new    ;" width="611" height="225" xlink:href="15A8FAF4.png"  transform="matrix(1 0 0 1 -24 70)">
</image>
<text transform="matrix(1.0262 0 0 1 130 314.541)" class="st0 st1 st2">COVID-19 Resources</text>
<rect x="-1" width="1171" height="51"/>
<path class="st3" d="M1328,40L1328,40L1328,40z"/>
<rect x="-0.5" y="411" class="st4" width="1170" height="100"/>
<g>
	<g>
		<g>
			<defs>
				<rect id="SVGID_1_" x="600" y="541" width="263.8" height="241"/>
			</defs>
			<clipPath id="SVGID_2_">
				<use xlink:href="#SVGID_1_"  style="overflow:visible;"/>
			</clipPath>
			<g transform="matrix(1 0 0 1 0 0)" class="st5">
				
					<image style="overflow:visible;enable-background:new    ;" width="798" height="516" xlink:href="15A8FAF7.jpeg"  transform="matrix(0.4643 0 0 0.4695 523.4924 539.7219)">
				</image>
			</g>
		</g>
	</g>
</g>
<path class="st6" d="M-64.3,365.9c1.1,0,2.1-0.7,2.1-1.5s-1-1.4-2.1-1.4l-24.1,21l-24.7-20.2c-1.1,0-2.1,0.7-2.1,1.5s1,1.4,2.1,1.4
	l24.7,20.2L-64.3,365.9z"/>
<text transform="matrix(0.5993 0 0 1 42 471.4639)" class="st0 st1 st7">Changing Lives to Empowering the Community Through the Public Healthcare Crisis and the Economic Emergency</text>
<image style="overflow:visible;enable-background:new    ;" width="792" height="612" xlink:href="15A8FAFC.png"  transform="matrix(6.944445e-02 0 0 7.026144e-02 100 4)">
</image>
<text transform="matrix(1.0569 0 0 1 150.0005 35.0205)" class="st8 st1 st9">COVID-19 Resources</text>
<g class="st10">
	<g>
		<g>
			<defs>
				<rect id="SVGID_3_" y="541" width="270" height="241"/>
			</defs>
			<clipPath id="SVGID_4_">
				<use xlink:href="#SVGID_3_"  style="overflow:visible;"/>
			</clipPath>
			<g transform="matrix(1 0 0 1 0 0)" class="st11">
				
					<image style="overflow:visible;enable-background:new    ;" width="799" height="513" xlink:href="15A8FAF1.jpeg"  transform="matrix(0.4703 0 0 0.4834 -110.874 541)">
				</image>
			</g>
		</g>
	</g>
</g>
<text transform="matrix(1.0084 0 0 1 35 683.9219)" class="st0 st12 st13">Facts</text>
<text transform="matrix(1.0542 0 0 1 625 686.2939)" class="st0 st12 st14">Impact</text>
<text transform="matrix(0.7965 0 0 1 311.999 679.667)" class="st0 st12 st15">Resources</text>
<rect x="300" y="541" class="st16" width="270" height="241"/>
<rect x="8" y="551" class="st17" width="250" height="217"/>
<rect x="606.5" y="548.5" class="st17" width="250" height="217"/>
<rect x="606.5" y="548.5" class="st17" width="250" height="217"/>
<rect x="307.5" y="549.5" class="st17" width="250" height="217"/>
<rect x="906.5" y="548.5" class="st17" width="250" height="217"/>
<rect x="3" y="810" class="st4" width="383" height="109"/>
<text transform="matrix(0.9778 0 0 1 16 851.5684)" class="st0 st1 st18">Coroniavirus Pandemic</text>
<rect x="3" y="873" class="st0" width="1167" height="100"/>
<path class="st0" d="M378.7,825.2c-0.1,0.7,0.3,0.7,0.7,0.8c2.6,0.3,5.1,0.2,7.7,0.2c2.1,0,4.1,0,6.2,0c0.2,0,0.6-0.1,0.6,0.3
	c0,0.3-0.3,0.5-0.6,0.4c-0.8-0.1-1.5-0.2-2.3-0.2c-2.7,0-5.5-0.1-8.2,0c-1.4,0.1-2.8-0.3-4.2,0.5c1.7,0,3.4,0,5.2,0
	c2.7,0,5.4,0.1,8.1,0c1.1,0,1.3,0.4,1.3,1.4c-0.1,3.6,0.2,7.2-0.2,10.8c-0.1,0.6,0.5,0.7,1,1.2c-4.2,0-8.3,0-12.4,0
	c-0.9,0-1.7,0-2.6,0c-0.2,0-0.7-0.1-0.4,0.5c0,5.1,0,10.3,0,15.4c-0.4,0.4-0.8,0.4-1.3,0.4c-3.8,0-7.7,0-11.5,0
	c-0.5,0-0.8-0.1-1.2-0.4c0-5.1,0-10.3,0-15.4c0-0.1,0-0.2,0-0.2c-0.3-0.4-0.8-0.2-1.2-0.2c-3.8,0-7.7,0-11.5,0
	c-1.2,0-1.8-0.5-1.8-1.8c-0.1-3.6,0-7.2,0-10.9c0-0.7,0.4-0.9,0.9-0.6c0.5,0.4,1,0.3,1.6,0.3c3.4,0,6.7,0,10.1,0c0.3,0,0.6,0,0.8,0
	c1.3-0.2,1.5-0.6,0.7-1.8c0.1-0.1,0.1-0.2,0.2-0.2c0.4-0.4,0.2-1,0.2-1.4c0-4.9,0-9.9,0-14.8c0-1.2,0.3-1.7,1.4-1.5
	c0.1,0.1,0.2,0.2,0.3,0.3c2.9,0.3,5.9,0.1,8.9,0.1c0.6,0,1.2-0.1,1.9,0c0.4-0.1,0.9,0,1.2-0.3c0.7,0.2,0.5,0.8,0.5,1.2
	c0,4.9,0,9.7,0,14.6C378.6,824.3,378.7,824.8,378.7,825.2z"/>
<polygon class="st19" points="-559.4,1066.6 -566.9,1066.6 -566.9,1066.6 "/>
<g>
	<path d="M-1049,1219.3V1178h3.9v34.2h9.7v7h-13.6V1219.3z"/>
	<path d="M-1032.7,1219.3v-41.6h14.3v7h-10.4v9.2h9.7v7h-9.7v11.3h10.8v7L-1032.7,1219.3L-1032.7,1219.3z"/>
	<path d="M-1015.7,1205.8l3.8-0.8c0.4,5.3,1.8,8,4.2,8c1.2,0,2.1-0.5,2.8-1.6s1-2.4,1-4c0-0.9-0.1-1.7-0.4-2.4
		c-0.2-0.7-0.6-1.2-1.1-1.6s-1.6-1.1-3.5-2.1c-1.7-0.9-2.9-1.9-3.6-2.9c-0.8-1-1.4-2.4-1.8-4.1c-0.5-1.7-0.7-3.5-0.7-5.5
		c0-2.3,0.3-4.3,0.9-6.1c0.6-1.8,1.4-3.2,2.4-4.1s2.3-1.4,3.8-1.4c2.3,0,4,1.1,5.3,3.3c1.3,2.2,1.9,5.3,2,9.3l-3.9,0.4
		c-0.2-2.2-0.5-3.8-1.1-4.7c-0.6-0.9-1.4-1.3-2.4-1.3s-1.9,0.4-2.4,1.2c-0.6,0.8-0.8,1.7-0.8,2.9c0,1.1,0.3,2.1,0.8,2.9
		s1.7,1.6,3.5,2.6c2,1,3.4,2.1,4.2,3.2c0.9,1.1,1.5,2.5,2,4.3s0.7,3.9,0.7,6.4c0,3.6-0.6,6.7-1.9,9.1c-1.3,2.5-3.2,3.7-5.9,3.7
		C-1012.6,1220-1015.2,1215.3-1015.7,1205.8z"/>
	<path d="M-997.8,1205.8l3.8-0.8c0.4,5.3,1.8,8,4.2,8c1.2,0,2.1-0.5,2.8-1.6s1-2.4,1-4c0-0.9-0.1-1.7-0.4-2.4
		c-0.2-0.7-0.6-1.2-1.1-1.6s-1.6-1.1-3.5-2.1c-1.7-0.9-2.9-1.9-3.6-2.9c-0.8-1-1.4-2.4-1.8-4.1c-0.5-1.7-0.7-3.5-0.7-5.5
		c0-2.3,0.3-4.3,0.9-6.1c0.6-1.8,1.4-3.2,2.4-4.1s2.3-1.4,3.8-1.4c2.3,0,4,1.1,5.3,3.3c1.3,2.2,1.9,5.3,2,9.3l-3.9,0.4
		c-0.2-2.2-0.5-3.8-1.1-4.7c-0.6-0.9-1.4-1.3-2.4-1.3s-1.9,0.4-2.4,1.2c-0.6,0.8-0.8,1.7-0.8,2.9c0,1.1,0.3,2.1,0.8,2.9
		s1.7,1.6,3.5,2.6c2,1,3.4,2.1,4.2,3.2c0.9,1.1,1.5,2.5,2,4.3s0.7,3.9,0.7,6.4c0,3.6-0.6,6.7-1.9,9.1c-1.3,2.5-3.2,3.7-5.9,3.7
		C-994.6,1220-997.3,1215.3-997.8,1205.8z"/>
	<path d="M-967.1,1219.3v-34.6h-5.7v-7h15.3v7h-5.7v34.6H-967.1z"/>
	<path d="M-955,1219.3v-41.6h3.9v16.4h7.6v-16.4h3.9v41.6h-3.9v-18.2h-7.6v18.2H-955z"/>
	<path d="M-918.2,1219.3h-4.2l-1.7-9.4h-7.7l-1.6,9.4h-4.1l7.5-41.6h4.1L-918.2,1219.3z M-925.4,1202.9l-2.7-15.4l-2.6,15.4H-925.4z
		"/>
	<path d="M-916.1,1219.3v-41.6h3.8l7.9,27.8v-27.8h3.6v41.6h-3.9l-7.7-27.1v27.1H-916.1z"/>
	<path d="M-877.7,1211.9v7.4h-12.9c0.1-2.8,0.6-5.5,1.3-8s2.1-5.8,4.1-9.9c1.6-3.3,2.6-5.5,3-6.6c0.6-1.7,0.8-3.4,0.8-5.1
		c0-1.8-0.2-3.2-0.7-4.1s-1.1-1.4-1.8-1.4c-1.6,0-2.5,2.2-2.6,6.5l-3.7-0.8c0.2-4.2,0.9-7.4,2-9.3c1.1-2,2.6-3,4.4-3
		c2,0,3.5,1.2,4.6,3.5c1,2.3,1.5,5,1.5,8c0,1.7-0.1,3.4-0.4,4.9c-0.3,1.6-0.7,3.2-1.2,4.8s-1.5,3.7-2.7,6.2
		c-1.2,2.4-1.9,3.9-2.2,4.7c-0.3,0.8-0.6,1.5-0.8,2.2L-877.7,1211.9L-877.7,1211.9z"/>
	<path d="M-868.9,1177.6c1.9,0,3.4,1.6,4.5,4.7c1.2,3.1,1.7,8.7,1.7,16.5s-0.6,13.3-1.7,16.5c-1.2,3.1-2.7,4.7-4.5,4.7
		c-1.9,0-3.4-1.6-4.5-4.7c-1.2-3.1-1.7-8.7-1.7-16.6c0-7.8,0.6-13.3,1.7-16.4C-872.3,1179.1-870.8,1177.6-868.9,1177.6z
		 M-868.9,1184.2c-0.7,0-1.3,0.9-1.7,2.6s-0.7,5.7-0.7,12.1s0.2,10.4,0.7,12.1c0.4,1.7,1,2.5,1.7,2.5s1.3-0.9,1.8-2.6
		c0.4-1.7,0.6-5.7,0.6-12.1s-0.2-10.4-0.6-12.1S-868.2,1184.2-868.9,1184.2z"/>
	<path d="M-860.2,1188c0-3.8,0.4-6.6,1.2-8.3c0.8-1.8,1.8-2.6,3.1-2.6s2.4,0.9,3.1,2.6s1.2,4.5,1.2,8.3s-0.4,6.6-1.2,8.3
		c-0.8,1.8-1.8,2.6-3.1,2.6s-2.3-0.9-3.1-2.6C-859.8,1194.6-860.2,1191.8-860.2,1188z M-857.3,1187.9c0,2.7,0.1,4.4,0.4,5.2
		c0.2,0.8,0.6,1.3,1,1.3s0.7-0.4,1-1.3c0.2-0.8,0.4-2.6,0.4-5.2c0-2.7-0.1-4.4-0.4-5.2c-0.2-0.8-0.6-1.3-1-1.3s-0.7,0.4-1,1.3
		C-857.2,1183.5-857.3,1185.3-857.3,1187.9z M-853.2,1220.9h-2.7l10.3-43.9h2.6L-853.2,1220.9z M-847.2,1210c0-3.8,0.4-6.6,1.2-8.3
		c0.8-1.8,1.8-2.6,3.1-2.6s2.3,0.9,3.1,2.6c0.8,1.8,1.2,4.5,1.2,8.3s-0.4,6.6-1.2,8.4s-1.8,2.7-3.1,2.7s-2.3-0.9-3.1-2.6
		C-846.8,1216.6-847.2,1213.8-847.2,1210z M-844.3,1210c0,2.6,0.1,4.4,0.4,5.2c0.2,0.8,0.6,1.2,1,1.2s0.7-0.4,1-1.2
		c0.2-0.8,0.4-2.6,0.4-5.2s-0.1-4.4-0.4-5.2c-0.2-0.8-0.6-1.2-1-1.2s-0.7,0.4-1,1.2C-844.2,1205.6-844.3,1207.3-844.3,1210z"/>
	<path d="M-828.8,1198.8c0-5,0.4-9,1.2-12.2s1.9-5.6,3.2-7.2s3-2.4,4.9-2.4c2.8,0,5,1.9,6.7,5.6s2.6,9,2.6,15.9
		c0,7-0.9,12.4-2.8,16.3c-1.6,3.5-3.8,5.2-6.6,5.2s-5-1.7-6.6-5.1C-827.9,1211-828.8,1205.6-828.8,1198.8z M-824.8,1198.5
		c0,4.8,0.5,8.4,1.5,10.8s2.3,3.6,3.8,3.6s2.8-1.2,3.8-3.6s1.5-6,1.5-10.9c0-4.8-0.5-8.4-1.5-10.7s-2.3-3.5-3.8-3.5
		c-1.6,0-2.9,1.2-3.9,3.5C-824.3,1190-824.8,1193.6-824.8,1198.5z"/>
	<path d="M-807.1,1219.3v-41.6h13.2v7h-9.3v9.9h8.1v7h-8.1v17.7H-807.1z"/>
	<path d="M-783.2,1177.7h7.7c2.1,0,3.6,0.3,4.4,1c0.9,0.7,1.6,1.9,2.2,3.6c0.6,1.7,0.9,3.7,0.9,5.8c0,2-0.3,3.8-0.8,5.4
		s-1.2,2.8-2,3.6c1.1,0.7,2,1.9,2.7,3.7s1,3.9,1,6.4c0,3-0.4,5.6-1.2,7.7s-1.8,3.4-2.9,3.9c-0.8,0.3-2.6,0.5-5.4,0.5h-6.5v-41.6
		H-783.2z M-779.3,1184.6v9.6h2.6c1.5,0,2.5,0,2.8-0.1c0.7-0.2,1.2-0.7,1.6-1.5c0.4-0.8,0.6-1.9,0.6-3.3c0-1.2-0.2-2.2-0.5-3
		s-0.7-1.2-1.1-1.4c-0.4-0.2-1.7-0.3-3.7-0.3L-779.3,1184.6L-779.3,1184.6z M-779.3,1201.2v11.1h3.6c1.6,0,2.6-0.1,3-0.4
		s0.8-0.9,1.1-1.7c0.3-0.9,0.5-1.9,0.5-3.3s-0.2-2.5-0.5-3.4s-0.8-1.5-1.3-1.8s-1.6-0.5-3.3-0.5L-779.3,1201.2L-779.3,1201.2z"/>
	<path d="M-763.7,1219.3V1178h3.9v34.2h9.7v7h-13.6L-763.7,1219.3L-763.7,1219.3z"/>
	<path d="M-730,1219.3h-4.2l-1.7-9.4h-7.7l-1.6,9.4h-4.1l7.5-41.6h4.1L-730,1219.3z M-737.2,1202.9l-2.7-15.4l-2.6,15.4H-737.2z"/>
	<path d="M-715.7,1204l3.8,2.6c-0.6,4.7-1.6,8.1-2.9,10.2s-3,3.2-5,3.2c-2.5,0-4.5-1.7-6.1-5.1c-1.8-4-2.7-9.3-2.7-16
		c0-7.1,0.9-12.7,2.7-16.7c1.6-3.5,3.7-5.2,6.3-5.2c2.2,0,4,1.3,5.4,3.9c1,1.9,1.8,4.6,2.3,8.3l-3.8,2c-0.2-2.3-0.7-4-1.5-5.2
		c-0.7-1.2-1.6-1.8-2.6-1.8c-1.4,0-2.6,1.1-3.5,3.3s-1.3,5.8-1.3,10.9c0,5.2,0.4,9,1.3,11.2s2,3.3,3.4,3.3c1,0,1.9-0.7,2.7-2.1
		C-716.5,1209.3-716,1207.1-715.7,1204z"/>
	<path d="M-708.5,1219.3v-41.6h3.9v18.5l7.9-18.5h5.2l-7.3,16.2l7.6,25.4h-5l-5.3-19.6l-3.2,7v12.6H-708.5z"/>
	<path d="M-679,1219.3l-4.6-41.6h4l2.9,28.6l3.5-28.6h4.6l3.4,29.1l3-29.1h3.9l-4.7,41.6h-4.1l-3.8-31.1l-3.8,31.1H-679z"/>
	<path d="M-657.1,1198.8c0-5,0.4-9,1.2-12.2s1.9-5.6,3.2-7.2s3-2.4,4.9-2.4c2.8,0,5,1.9,6.7,5.6s2.6,9,2.6,15.9
		c0,7-0.9,12.4-2.8,16.3c-1.6,3.5-3.8,5.2-6.6,5.2s-5-1.7-6.6-5.1C-656.2,1211-657.1,1205.6-657.1,1198.8z M-653.1,1198.5
		c0,4.8,0.5,8.4,1.5,10.8s2.3,3.6,3.8,3.6s2.8-1.2,3.8-3.6s1.5-6,1.5-10.9c0-4.8-0.5-8.4-1.5-10.7s-2.3-3.5-3.8-3.5
		c-1.6,0-2.9,1.2-3.9,3.5S-653.1,1193.6-653.1,1198.5z"/>
	<path d="M-635.4,1219.3v-41.6h8.2c2.1,0,3.6,0.4,4.5,1.1s1.6,2,2.2,3.9c0.6,1.8,0.9,4.1,0.9,6.6c0,3.3-0.4,5.9-1.3,7.9
		c-0.9,2-2.1,3.2-3.8,3.7c0.8,1.1,1.5,2.2,2.1,3.5c0.5,1.3,1.3,3.5,2.2,6.8l2.3,8.1h-4.6l-2.8-9.1c-1-3.3-1.7-5.3-2.1-6.1
		s-0.7-1.4-1.2-1.7c-0.4-0.3-1.1-0.5-2-0.5h-0.8v17.4L-635.4,1219.3L-635.4,1219.3z M-631.5,1195.3h2.9c1.8,0,2.9-0.1,3.4-0.4
		s0.9-0.8,1.2-1.7s0.4-1.9,0.4-3.3c0-1.3-0.1-2.4-0.4-3.2c-0.3-0.8-0.7-1.4-1.2-1.7c-0.4-0.2-1.4-0.3-3.2-0.3h-3v10.6H-631.5z"/>
	<path d="M-616,1219.3v-41.6h3.9v18.5l7.9-18.5h5.2l-7.3,16.2l7.6,25.4h-5l-5.3-19.6l-3.2,7v12.6H-616z"/>
	<path d="M-596.6,1219.3v-41.6h14.3v7h-10.4v9.2h9.7v7h-9.7v11.3h10.8v7L-596.6,1219.3L-596.6,1219.3z"/>
	<path d="M-578.7,1219.3v-41.6h8.2c2.1,0,3.6,0.4,4.5,1.1s1.6,2,2.2,3.9c0.6,1.8,0.9,4.1,0.9,6.6c0,3.3-0.4,5.9-1.3,7.9
		c-0.9,2-2.1,3.2-3.8,3.7c0.8,1.1,1.5,2.2,2.1,3.5c0.5,1.3,1.3,3.5,2.2,6.8l2.3,8.1h-4.6l-2.8-9.1c-1-3.3-1.7-5.3-2.1-6.1
		s-0.7-1.4-1.2-1.7s-1.1-0.5-2-0.5h-0.8v17.4L-578.7,1219.3L-578.7,1219.3z M-574.8,1195.3h2.9c1.8,0,2.9-0.1,3.4-0.4
		s0.9-0.8,1.2-1.7s0.4-1.9,0.4-3.3c0-1.3-0.1-2.4-0.4-3.2c-0.3-0.8-0.7-1.4-1.2-1.7c-0.4-0.2-1.4-0.3-3.2-0.3h-3v10.6H-574.8z"/>
	<path d="M-560.3,1205.8l3.8-0.8c0.4,5.3,1.8,8,4.2,8c1.2,0,2.1-0.5,2.8-1.6s1-2.4,1-4c0-0.9-0.1-1.7-0.4-2.4
		c-0.2-0.7-0.6-1.2-1.1-1.6s-1.6-1.1-3.5-2.1c-1.7-0.9-2.9-1.9-3.6-2.9c-0.8-1-1.4-2.4-1.8-4.1c-0.5-1.7-0.7-3.5-0.7-5.5
		c0-2.3,0.3-4.3,0.9-6.1c0.6-1.8,1.4-3.2,2.4-4.1s2.3-1.4,3.8-1.4c2.3,0,4,1.1,5.3,3.3s1.9,5.3,2,9.3l-3.9,0.4
		c-0.2-2.2-0.5-3.8-1.1-4.7c-0.6-0.9-1.4-1.3-2.4-1.3s-1.9,0.4-2.4,1.2c-0.6,0.8-0.8,1.7-0.8,2.9c0,1.1,0.3,2.1,0.8,2.9
		s1.7,1.6,3.5,2.6c2,1,3.4,2.1,4.2,3.2c0.9,1.1,1.5,2.5,2,4.3s0.7,3.9,0.7,6.4c0,3.6-0.6,6.7-1.9,9.1c-1.3,2.5-3.2,3.7-5.9,3.7
		C-557.1,1220-559.7,1215.3-560.3,1205.8z"/>
	<path d="M-533.9,1219.3v-41.6h3.9v16.4h7.6v-16.4h3.9v41.6h-3.9v-18.2h-7.6v18.2H-533.9z"/>
	<path d="M-497.1,1219.3h-4.2l-1.7-9.4h-7.7l-1.6,9.4h-4.1l7.5-41.6h4.1L-497.1,1219.3z M-504.3,1202.9l-2.7-15.4l-2.6,15.4H-504.3z
		"/>
	<path d="M-492.1,1219.3l-6.9-41.6h4.2l4.9,30.8l4.7-30.8h4.1l-6.9,41.6H-492.1z"/>
	<path d="M-479.1,1219.3v-41.6h14.3v7h-10.4v9.2h9.7v7h-9.7v11.3h10.8v7L-479.1,1219.3L-479.1,1219.3z"/>
	<path d="M-449.4,1219.3v-34.6h-5.7v-7h15.3v7h-5.7v34.6H-449.4z"/>
	<path d="M-437.3,1219.3v-41.6h3.9v16.4h7.6v-16.4h3.9v41.6h-3.9v-18.2h-7.6v18.2H-437.3z"/>
	<path d="M-417.9,1219.3v-41.6h14.3v7H-414v9.2h9.7v7h-9.7v11.3h10.8v7L-417.9,1219.3L-417.9,1219.3z"/>
	<path d="M-380.2,1204l3.8,2.6c-0.6,4.7-1.6,8.1-2.9,10.2s-3,3.2-5,3.2c-2.5,0-4.5-1.7-6.1-5.1c-1.8-4-2.7-9.3-2.7-16
		c0-7.1,0.9-12.7,2.7-16.7c1.6-3.5,3.7-5.2,6.3-5.2c2.2,0,4,1.3,5.4,3.9c1,1.9,1.8,4.6,2.3,8.3l-3.8,2c-0.2-2.3-0.7-4-1.5-5.2
		c-0.7-1.2-1.6-1.8-2.6-1.8c-1.4,0-2.6,1.1-3.5,3.3c-0.9,2.2-1.3,5.8-1.3,10.9c0,5.2,0.4,9,1.3,11.2s2,3.3,3.4,3.3
		c1,0,1.9-0.7,2.7-2.1S-380.5,1207.1-380.2,1204z"/>
	<path d="M-355.7,1219.3h-4.2l-1.7-9.4h-7.7l-1.6,9.4h-4.1l7.5-41.6h4.1L-355.7,1219.3z M-362.9,1202.9l-2.7-15.4l-2.6,15.4H-362.9z
		"/>
	<path d="M-353.7,1219.3v-41.6h6.2c2.3,0,3.8,0.2,4.6,0.6c1.1,0.6,2.1,2,2.8,4.1c0.7,2.1,1.1,4.8,1.1,8.1c0,3-0.3,5.5-1,7.6
		s-1.4,3.5-2.4,4.3s-2.6,1.2-5,1.2h-2.5v15.7L-353.7,1219.3L-353.7,1219.3z M-349.8,1184.7v11.8h2.1c1.4,0,2.4-0.2,2.9-0.5
		c0.5-0.4,0.9-1,1.3-1.9c0.3-0.9,0.5-2.1,0.5-3.5s-0.2-2.6-0.5-3.5s-0.8-1.6-1.3-1.9s-1.6-0.5-3.2-0.5H-349.8z"/>
	<path d="M-320.3,1219.3h-4.2l-1.7-9.4h-7.7l-1.6,9.4h-4.1l7.5-41.6h4.1L-320.3,1219.3z M-327.5,1202.9l-2.7-15.4l-2.6,15.4H-327.5z
		"/>
	<path d="M-318.3,1177.7h7.7c2.1,0,3.6,0.3,4.4,1c0.9,0.7,1.6,1.9,2.2,3.6s0.9,3.7,0.9,5.8c0,2-0.3,3.8-0.8,5.4s-1.2,2.8-2,3.6
		c1.1,0.7,2,1.9,2.7,3.7s1,3.9,1,6.4c0,3-0.4,5.6-1.2,7.7s-1.8,3.4-2.9,3.9c-0.8,0.3-2.6,0.5-5.4,0.5h-6.5v-41.6H-318.3z
		 M-314.4,1184.6v9.6h2.6c1.5,0,2.5,0,2.8-0.1c0.7-0.2,1.2-0.7,1.6-1.5s0.6-1.9,0.6-3.3c0-1.2-0.2-2.2-0.5-3s-0.7-1.2-1.1-1.4
		c-0.4-0.2-1.7-0.3-3.7-0.3L-314.4,1184.6L-314.4,1184.6z M-314.4,1201.2v11.1h3.6c1.6,0,2.6-0.1,3-0.4s0.8-0.9,1.1-1.7
		c0.3-0.9,0.5-1.9,0.5-3.3s-0.2-2.5-0.5-3.4s-0.8-1.5-1.3-1.8s-1.6-0.5-3.3-0.5L-314.4,1201.2L-314.4,1201.2z"/>
	<path d="M-299,1219.3v-41.6h3.9v41.6H-299z"/>
	<path d="M-291.3,1219.3V1178h3.9v34.2h9.7v7h-13.6V1219.3z"/>
	<path d="M-275.1,1219.3v-41.6h3.9v41.6H-275.1z"/>
	<path d="M-263.2,1219.3v-34.6h-5.7v-7h15.3v7h-5.7v34.6H-263.2z"/>
	<path d="M-246.1,1219.3v-17.5l-7-24.1h4.5l4.5,16.5l4.5-16.5h4.5l-7.1,24.2v17.5L-246.1,1219.3L-246.1,1219.3z"/>
	<path d="M-221.8,1219.3v-34.6h-5.7v-7h15.3v7h-5.7v34.6H-221.8z"/>
	<path d="M-211,1198.8c0-5,0.4-9,1.2-12.2s1.9-5.6,3.2-7.2s3-2.4,4.9-2.4c2.8,0,5,1.9,6.7,5.6s2.6,9,2.6,15.9c0,7-0.9,12.4-2.8,16.3
		c-1.6,3.5-3.8,5.2-6.6,5.2s-5-1.7-6.6-5.1C-210.1,1211-211,1205.6-211,1198.8z M-207,1198.5c0,4.8,0.5,8.4,1.5,10.8
		s2.3,3.6,3.8,3.6s2.8-1.2,3.8-3.6s1.5-6,1.5-10.9c0-4.8-0.5-8.4-1.5-10.7c-1-2.3-2.3-3.5-3.8-3.5c-1.6,0-2.9,1.2-3.9,3.5
		C-206.5,1190-207,1193.6-207,1198.5z"/>
	<path d="M-177.5,1219.3v-34.6h-5.7v-7h15.3v7h-5.7v34.6H-177.5z"/>
	<path d="M-165.4,1219.3v-41.6h14.3v7h-10.4v9.2h9.7v7h-9.7v11.3h10.8v7L-165.4,1219.3L-165.4,1219.3z"/>
	<path d="M-147.3,1219.3V1178h3.9v34.2h9.7v7h-13.6L-147.3,1219.3L-147.3,1219.3z"/>
	<path d="M-131,1219.3v-41.6h14.3v7h-10.4v9.2h9.7v7h-9.7v11.3h10.8v7L-131,1219.3L-131,1219.3z"/>
	<path d="M-110.4,1219.3l-4.6-41.6h4l2.9,28.6l3.5-28.6h4.6l3.4,29.1l3-29.1h3.9l-4.7,41.6h-4.1l-3.8-31.1l-3.8,31.1H-110.4z"/>
	<path d="M-88.5,1198.8c0-5,0.4-9,1.2-12.2c0.8-3.2,1.9-5.6,3.2-7.2c1.3-1.6,3-2.4,4.9-2.4c2.8,0,5,1.9,6.7,5.6s2.6,9,2.6,15.9
		c0,7-0.9,12.4-2.8,16.3c-1.6,3.5-3.8,5.2-6.6,5.2c-2.8,0-5-1.7-6.6-5.1C-87.6,1211-88.5,1205.6-88.5,1198.8z M-84.5,1198.5
		c0,4.8,0.5,8.4,1.5,10.8s2.3,3.6,3.8,3.6s2.8-1.2,3.8-3.6s1.5-6,1.5-10.9c0-4.8-0.5-8.4-1.5-10.7c-1-2.3-2.3-3.5-3.8-3.5
		c-1.6,0-2.9,1.2-3.9,3.5C-84,1190-84.5,1193.6-84.5,1198.5z"/>
	<path d="M-66.8,1219.3v-41.6h8.2c2.1,0,3.6,0.4,4.5,1.1s1.6,2,2.2,3.9c0.6,1.8,0.9,4.1,0.9,6.6c0,3.3-0.4,5.9-1.3,7.9
		c-0.9,2-2.1,3.2-3.8,3.7c0.8,1.1,1.5,2.2,2.1,3.5c0.5,1.3,1.3,3.5,2.2,6.8l2.3,8.1h-4.6l-2.8-9.1c-1-3.3-1.7-5.3-2.1-6.1
		c-0.4-0.8-0.7-1.4-1.2-1.7s-1.1-0.5-2-0.5H-63v17.4L-66.8,1219.3L-66.8,1219.3z M-62.9,1195.3h2.9c1.8,0,2.9-0.1,3.4-0.4
		s0.9-0.8,1.2-1.7s0.4-1.9,0.4-3.3c0-1.3-0.1-2.4-0.4-3.2c-0.3-0.8-0.7-1.4-1.2-1.7c-0.4-0.2-1.4-0.3-3.2-0.3h-3v10.6H-62.9z"/>
	<path d="M-47.4,1219.3v-41.6h3.9v18.5l7.9-18.5h5.2l-7.3,16.2l7.6,25.4h-5l-5.3-19.6l-3.2,7v12.6H-47.4z"/>
</g>
<g>
	<path d="M1129.3,1254l2.5-0.9c0.1,3.1,0.6,4.7,1.5,4.7c0.6,0,1-0.8,1.4-2.3c0.4-1.6,0.6-4.7,0.7-9.5c-0.3,1.2-0.7,2.1-1.1,2.7
		s-0.8,0.9-1.3,0.9c-1,0-1.9-1.3-2.7-3.8c-0.8-2.5-1.2-5.9-1.2-10.1c0-4.5,0.4-8,1.2-10.5c0.8-2.6,1.8-3.8,3.1-3.8
		c1.4,0,2.5,1.7,3.3,5c0.9,3.3,1.3,8.8,1.3,16.4c0,7.8-0.5,13.4-1.4,16.8s-2.1,5.1-3.6,5.1c-1,0-1.8-0.9-2.5-2.6
		C1129.9,1260.2,1129.4,1257.6,1129.3,1254z M1135.1,1236.3c0-2.7-0.2-4.7-0.6-6.1s-0.8-2.1-1.3-2.1s-0.9,0.6-1.2,1.8
		c-0.3,1.2-0.5,3.1-0.5,5.9c0,2.7,0.2,4.7,0.5,6s0.8,1.9,1.3,1.9s0.9-0.6,1.2-1.8C1134.9,1240.5,1135.1,1238.7,1135.1,1236.3z"/>
	<path d="M1144.9,1242.9c0-5.1,0.3-9.2,0.9-12.5s1.3-5.7,2.3-7.3c0.9-1.6,2.1-2.4,3.4-2.4c1.9,0,3.5,1.9,4.7,5.7
		c1.2,3.8,1.8,9.2,1.8,16.2c0,7.1-0.6,12.6-1.9,16.6c-1.1,3.5-2.6,5.3-4.6,5.3c-1.9,0-3.5-1.7-4.6-5.2
		C1145.5,1255.3,1144.9,1249.8,1144.9,1242.9z M1147.6,1242.6c0,4.9,0.4,8.5,1.1,11c0.7,2.4,1.6,3.7,2.7,3.7s1.9-1.2,2.6-3.6
		s1.1-6.1,1.1-11.2c0-4.9-0.3-8.6-1-10.9c-0.7-2.4-1.6-3.5-2.7-3.5s-2,1.2-2.7,3.6C1148,1233.9,1147.6,1237.6,1147.6,1242.6z"/>
	<path d="M1160,1221.4h2.7v23c0,3.6,0,5.9,0.1,7c0.1,1.9,0.4,3.3,0.9,4.3s1,1.5,1.8,1.5c0.6,0,1.1-0.4,1.5-1.1s0.7-1.7,0.8-3
		c0.1-1.3,0.2-4,0.2-8.3v-23.5h2.7v22.3c0,5.7-0.1,9.8-0.4,12.3c-0.2,2.5-0.8,4.6-1.6,6.2c-0.8,1.6-1.9,2.4-3.3,2.4s-2.5-0.7-3.3-2
		s-1.4-3.1-1.7-5.5s-0.5-6.7-0.5-13.1v-22.5L1160,1221.4L1160,1221.4z"/>
	<path d="M1176.5,1263.8v-35.2h-4v-7.2h10.7v7.2h-4v35.2H1176.5z"/>
	<path d="M1196.2,1263.8h-2.6v-30.6c-1,2.8-2.1,4.9-3.3,6.2v-7.4c0.7-0.8,1.5-2.1,2.2-4c0.8-1.9,1.3-4.2,1.6-6.7h2.1L1196.2,1263.8
		L1196.2,1263.8z"/>
	<path d="M1204.4,1221.3c1.3,0,2.4,1.6,3.2,4.8c0.8,3.2,1.2,8.8,1.2,16.8s-0.4,13.6-1.2,16.8c-0.8,3.2-1.9,4.8-3.1,4.8
		c-1.3,0-2.4-1.6-3.2-4.8c-0.8-3.2-1.2-8.8-1.2-16.9c0-8,0.4-13.5,1.2-16.8C1202,1222.9,1203.1,1221.3,1204.4,1221.3z M1204.4,1228
		c-0.5,0-0.9,0.9-1.2,2.6c-0.3,1.7-0.5,5.8-0.5,12.3s0.2,10.6,0.5,12.3c0.3,1.7,0.7,2.6,1.2,2.6s0.9-0.9,1.2-2.6
		c0.3-1.7,0.4-5.8,0.4-12.3s-0.1-10.6-0.4-12.3C1205.3,1228.9,1204.9,1228,1204.4,1228z"/>
	<path d="M1216.2,1221.4h5.4c1.5,0,2.5,0.3,3.1,1s1.1,1.9,1.5,3.7c0.4,1.8,0.6,3.7,0.6,6c0,2-0.2,3.9-0.5,5.5
		c-0.4,1.6-0.8,2.9-1.4,3.7c0.8,0.7,1.4,2,1.9,3.8c0.4,1.8,0.7,3.9,0.7,6.5c0,3.1-0.3,5.7-0.9,7.8c-0.6,2.1-1.3,3.4-2,3.9
		c-0.5,0.3-1.8,0.5-3.8,0.5h-4.6L1216.2,1221.4L1216.2,1221.4z M1218.9,1228.5v9.8h1.8c1.1,0,1.7,0,2-0.1c0.5-0.2,0.8-0.7,1.1-1.5
		c0.3-0.8,0.4-1.9,0.4-3.3c0-1.3-0.1-2.3-0.3-3.1c-0.2-0.8-0.5-1.3-0.8-1.5s-1.2-0.3-2.6-0.3H1218.9z M1218.9,1245.3v11.3h2.5
		c1.1,0,1.8-0.1,2.1-0.4c0.3-0.3,0.6-0.9,0.8-1.8s0.3-2,0.3-3.3c0-1.4-0.1-2.5-0.3-3.4s-0.5-1.5-0.9-1.8s-1.1-0.5-2.3-0.5
		L1218.9,1245.3L1218.9,1245.3z"/>
	<path d="M1229.8,1263.8v-42.1h2.7v34.9h6.7v7.2H1229.8z"/>
	<path d="M1253.3,1263.8h-2.9l-1.2-9.6h-5.4l-1.1,9.6h-2.9l5.2-42.4h2.9L1253.3,1263.8z M1248.3,1247.1l-1.9-15.7l-1.8,15.7H1248.3z
		"/>
	<path d="M1263.3,1248.2l2.6,2.6c-0.4,4.7-1.1,8.2-2,10.4c-1,2.2-2.1,3.3-3.5,3.3c-1.7,0-3.2-1.7-4.3-5.2c-1.3-4-1.9-9.5-1.9-16.3
		c0-7.2,0.6-12.9,1.9-17c1.1-3.5,2.6-5.3,4.4-5.3c1.5,0,2.8,1.3,3.8,4c0.7,1.9,1.3,4.7,1.6,8.4l-2.7,2c-0.2-2.3-0.5-4.1-1-5.3
		c-0.5-1.2-1.1-1.8-1.8-1.8c-1,0-1.8,1.1-2.4,3.4c-0.6,2.2-0.9,5.9-0.9,11.1c0,5.3,0.3,9.1,0.9,11.4s1.4,3.4,2.4,3.4
		c0.7,0,1.3-0.7,1.9-2.2C1262.7,1253.6,1263.1,1251.4,1263.3,1248.2z"/>
	<path d="M1268.3,1263.8v-42.4h2.7v18.9l5.5-18.9h3.7l-5.1,16.5l5.3,25.9h-3.5l-3.7-19.9l-2.2,7.1v12.8H1268.3z"/>
	<path d="M1281.1,1250l2.6-0.8c0.3,5.4,1.3,8.1,2.9,8.1c0.8,0,1.5-0.6,1.9-1.7c0.5-1.1,0.7-2.5,0.7-4.1c0-1-0.1-1.8-0.2-2.5
		s-0.4-1.2-0.7-1.7c-0.3-0.4-1.1-1.2-2.4-2.2c-1.2-0.9-2-1.9-2.5-2.9c-0.5-1.1-1-2.5-1.3-4.2s-0.5-3.6-0.5-5.6
		c0-2.3,0.2-4.4,0.6-6.2c0.4-1.8,1-3.2,1.7-4.2c0.7-0.9,1.6-1.4,2.6-1.4c1.6,0,2.8,1.1,3.7,3.3c0.9,2.2,1.4,5.4,1.4,9.5l-2.7,0.4
		c-0.1-2.3-0.4-3.9-0.8-4.8s-1-1.4-1.7-1.4s-1.3,0.4-1.7,1.2c-0.4,0.8-0.6,1.8-0.6,2.9c0,1.2,0.2,2.1,0.5,2.9s1.2,1.7,2.5,2.6
		c1.4,1,2.3,2.1,3,3.2s1.1,2.6,1.4,4.4s0.5,3.9,0.5,6.5c0,3.7-0.4,6.8-1.3,9.3s-2.2,3.8-4.1,3.8
		C1283.3,1264.6,1281.5,1259.7,1281.1,1250z"/>
	<path d="M1310.9,1263.8h-2.9l-1.2-9.6h-5.4l-1.1,9.6h-2.9l5.2-42.4h2.9L1310.9,1263.8z M1306,1247.1l-1.9-15.7l-1.8,15.7H1306z"/>
	<path d="M1312.4,1263.8v-42.4h5.7c1.5,0,2.5,0.4,3.1,1.1c0.6,0.8,1.1,2.1,1.5,4s0.6,4.1,0.6,6.8c0,3.3-0.3,6-0.9,8
		s-1.5,3.3-2.6,3.8c0.6,1.1,1.1,2.3,1.4,3.5c0.4,1.3,0.9,3.6,1.6,6.9l1.6,8.3h-3.2l-2-9.2c-0.7-3.3-1.2-5.4-1.4-6.3
		c-0.3-0.8-0.5-1.4-0.8-1.7c-0.3-0.3-0.7-0.5-1.4-0.5h-0.6v17.7L1312.4,1263.8L1312.4,1263.8z M1315.1,1239.4h2c1.2,0,2-0.1,2.3-0.4
		s0.6-0.8,0.8-1.7c0.2-0.8,0.3-2,0.3-3.4c0-1.3-0.1-2.4-0.3-3.3c-0.2-0.8-0.5-1.4-0.8-1.7c-0.3-0.2-1-0.3-2.2-0.3h-2.1
		L1315.1,1239.4L1315.1,1239.4z"/>
	<path d="M1325.9,1263.8v-42.4h10v7.2h-7.3v9.4h6.7v7.1h-6.7v11.5h7.5v7.2L1325.9,1263.8L1325.9,1263.8z"/>
	<path d="M1343,1242.9c0-5.1,0.3-9.2,0.9-12.5s1.3-5.7,2.3-7.3c0.9-1.6,2.1-2.4,3.4-2.4c1.9,0,3.5,1.9,4.7,5.7
		c1.2,3.8,1.8,9.2,1.8,16.2c0,7.1-0.6,12.6-1.9,16.6c-1.1,3.5-2.6,5.3-4.6,5.3c-1.9,0-3.5-1.7-4.6-5.2
		C1343.7,1255.3,1343,1249.8,1343,1242.9z M1345.8,1242.6c0,4.9,0.4,8.5,1.1,11c0.7,2.4,1.6,3.7,2.7,3.7s1.9-1.2,2.6-3.6
		s1.1-6.1,1.1-11.2c0-4.9-0.3-8.6-1-10.9c-0.7-2.4-1.6-3.5-2.7-3.5s-2,1.2-2.7,3.6C1346.2,1233.9,1345.8,1237.6,1345.8,1242.6z"/>
	<path d="M1361.6,1263.8l-4.8-42.4h2.9l3.4,31.4l3.3-31.4h2.9l-4.8,42.4H1361.6z"/>
	<path d="M1370.7,1263.8v-42.4h10v7.2h-7.3v9.4h6.7v7.1h-6.7v11.5h7.5v7.2L1370.7,1263.8L1370.7,1263.8z"/>
	<path d="M1383.2,1263.8v-42.4h5.7c1.5,0,2.5,0.4,3.1,1.1c0.6,0.8,1.1,2.1,1.5,4s0.6,4.1,0.6,6.8c0,3.3-0.3,6-0.9,8
		s-1.5,3.3-2.6,3.8c0.6,1.1,1.1,2.3,1.4,3.5c0.4,1.3,0.9,3.6,1.6,6.9l1.6,8.3h-3.2l-2-9.2c-0.7-3.3-1.2-5.4-1.4-6.3
		c-0.3-0.8-0.5-1.4-0.8-1.7c-0.3-0.3-0.7-0.5-1.4-0.5h-0.6v17.7L1383.2,1263.8L1383.2,1263.8z M1385.9,1239.4h2c1.2,0,2-0.1,2.3-0.4
		s0.6-0.8,0.8-1.7c0.2-0.8,0.3-2,0.3-3.4c0-1.3-0.1-2.4-0.3-3.3c-0.2-0.8-0.5-1.4-0.8-1.7c-0.3-0.2-1-0.3-2.2-0.3h-2.1
		L1385.9,1239.4L1385.9,1239.4z"/>
	<path d="M1396.7,1263.8v-42.4h5.7c1.5,0,2.5,0.4,3.1,1.1c0.6,0.8,1.1,2.1,1.5,4s0.6,4.1,0.6,6.8c0,3.3-0.3,6-0.9,8
		s-1.5,3.3-2.6,3.8c0.6,1.1,1.1,2.3,1.4,3.5c0.4,1.3,0.9,3.6,1.6,6.9l1.6,8.3h-3.2l-2-9.2c-0.7-3.3-1.2-5.4-1.4-6.3
		c-0.3-0.8-0.5-1.4-0.8-1.7s-0.7-0.5-1.4-0.5h-0.6v17.7L1396.7,1263.8L1396.7,1263.8z M1399.4,1239.4h2c1.2,0,2-0.1,2.3-0.4
		s0.6-0.8,0.8-1.7c0.2-0.8,0.3-2,0.3-3.4c0-1.3-0.1-2.4-0.3-3.3c-0.2-0.8-0.5-1.4-0.8-1.7c-0.3-0.2-1-0.3-2.2-0.3h-2.1
		L1399.4,1239.4L1399.4,1239.4z"/>
	<path d="M1410.2,1263.8v-42.4h10v7.2h-7.3v9.4h6.7v7.1h-6.7v11.5h7.5v7.2L1410.2,1263.8L1410.2,1263.8z"/>
	<path d="M1422.7,1263.8v-42.4h4.4c1.6,0,2.7,0.2,3.2,0.6c0.8,0.7,1.5,2.1,2,4.2s0.8,4.9,0.8,8.3c0,3.1-0.2,5.6-0.7,7.7
		c-0.4,2.1-1,3.5-1.7,4.4s-1.8,1.3-3.5,1.3h-1.8v16L1422.7,1263.8L1422.7,1263.8z M1425.4,1228.6v12.1h1.5c1,0,1.7-0.2,2.1-0.6
		s0.7-1,0.9-2c0.2-1,0.3-2.1,0.3-3.5s-0.1-2.6-0.4-3.6c-0.2-1-0.5-1.6-0.9-1.9s-1.1-0.5-2.2-0.5H1425.4z"/>
	<path d="M1435.2,1263.8v-42.4h5.7c1.5,0,2.5,0.4,3.1,1.1c0.6,0.8,1.1,2.1,1.5,4s0.6,4.1,0.6,6.8c0,3.3-0.3,6-0.9,8
		s-1.5,3.3-2.6,3.8c0.6,1.1,1.1,2.3,1.4,3.5c0.4,1.3,0.9,3.6,1.6,6.9l1.6,8.3h-3.2l-2-9.2c-0.7-3.3-1.2-5.4-1.4-6.3
		c-0.3-0.8-0.5-1.4-0.8-1.7c-0.3-0.3-0.7-0.5-1.4-0.5h-0.6v17.7L1435.2,1263.8L1435.2,1263.8z M1437.9,1239.4h2c1.2,0,2-0.1,2.3-0.4
		s0.6-0.8,0.8-1.7c0.2-0.8,0.3-2,0.3-3.4c0-1.3-0.1-2.4-0.3-3.3c-0.2-0.8-0.5-1.4-0.8-1.7c-0.3-0.2-1-0.3-2.2-0.3h-2.1
		L1437.9,1239.4L1437.9,1239.4z"/>
	<path d="M1448.8,1263.8v-42.4h10v7.2h-7.3v9.4h6.7v7.1h-6.7v11.5h7.5v7.2L1448.8,1263.8L1448.8,1263.8z"/>
	<path d="M1460.6,1250l2.6-0.8c0.3,5.4,1.3,8.1,2.9,8.1c0.8,0,1.5-0.6,1.9-1.7c0.5-1.1,0.7-2.5,0.7-4.1c0-1-0.1-1.8-0.2-2.5
		s-0.4-1.2-0.7-1.7c-0.3-0.4-1.1-1.2-2.4-2.2c-1.2-0.9-2-1.9-2.5-2.9c-0.5-1.1-1-2.5-1.3-4.2s-0.5-3.6-0.5-5.6
		c0-2.3,0.2-4.4,0.6-6.2c0.4-1.8,1-3.2,1.7-4.2c0.7-0.9,1.6-1.4,2.6-1.4c1.6,0,2.8,1.1,3.7,3.3c0.9,2.2,1.4,5.4,1.4,9.5l-2.7,0.4
		c-0.1-2.3-0.4-3.9-0.8-4.8s-1-1.4-1.7-1.4s-1.3,0.4-1.7,1.2c-0.4,0.8-0.6,1.8-0.6,2.9c0,1.2,0.2,2.1,0.5,2.9s1.2,1.7,2.5,2.6
		c1.4,1,2.3,2.1,3,3.2s1.1,2.6,1.4,4.4s0.5,3.9,0.5,6.5c0,3.7-0.4,6.8-1.3,9.3s-2.2,3.8-4.1,3.8
		C1462.8,1264.6,1460.9,1259.7,1460.6,1250z"/>
	<path d="M1473.8,1263.8v-42.4h10v7.2h-7.3v9.4h6.7v7.1h-6.7v11.5h7.5v7.2L1473.8,1263.8L1473.8,1263.8z"/>
	<path d="M1486.3,1263.8v-42.4h2.6l5.5,28.3v-28.3h2.5v42.4h-2.7l-5.4-27.7v27.7H1486.3z"/>
	<path d="M1502.8,1263.8v-35.2h-4v-7.2h10.7v7.2h-4v35.2H1502.8z"/>
	<path d="M1511.2,1263.8v-42.4h10v7.2h-7.3v9.4h6.7v7.1h-6.7v11.5h7.5v7.2L1511.2,1263.8L1511.2,1263.8z"/>
	<path d="M1523.7,1221.4h4.9c1.2,0,2.2,0.4,2.8,1.1c0.6,0.7,1.2,1.9,1.8,3.7c0.5,1.7,1,3.9,1.3,6.7c0.3,2.7,0.5,6.1,0.5,10.2
		c0,3.7-0.2,6.9-0.5,9.6s-0.7,4.9-1.2,6.4c-0.5,1.6-1.1,2.8-1.8,3.6c-0.7,0.8-1.6,1.2-2.7,1.2h-5.1L1523.7,1221.4L1523.7,1221.4z
		 M1526.4,1228.6v28.1h2c0.9,0,1.5-0.2,1.9-0.6s0.7-1.1,1-1.9c0.2-0.9,0.5-2.2,0.6-4.1c0.2-1.9,0.2-4.3,0.2-7.3
		c0-3.1-0.1-5.6-0.3-7.4c-0.2-1.8-0.4-3.2-0.8-4.3c-0.4-1-0.8-1.7-1.3-2.1c-0.4-0.3-1.1-0.4-2.2-0.4L1526.4,1228.6L1526.4,1228.6z"
		/>
	<path d="M1542.4,1263.8v-42.4h2.7v42.4H1542.4z"/>
	<path d="M1547.7,1263.8v-42.4h2.6l5.5,28.3v-28.3h2.5v42.4h-2.7l-5.4-27.7v27.7H1547.7z"/>
	<path d="M1572.4,1263.8h-2.6v-30.6c-1,2.8-2.1,4.9-3.3,6.2v-7.4c0.7-0.8,1.5-2.1,2.2-4c0.8-1.9,1.3-4.2,1.6-6.7h2.1L1572.4,1263.8
		L1572.4,1263.8z"/>
	<path d="M1580.6,1221.3c1.3,0,2.4,1.6,3.2,4.8c0.8,3.2,1.2,8.8,1.2,16.8s-0.4,13.6-1.2,16.8c-0.8,3.2-1.9,4.8-3.1,4.8
		c-1.3,0-2.4-1.6-3.2-4.8c-0.8-3.2-1.2-8.8-1.2-16.9c0-8,0.4-13.5,1.2-16.8S1579.3,1221.3,1580.6,1221.3z M1580.6,1228
		c-0.5,0-0.9,0.9-1.2,2.6c-0.3,1.7-0.5,5.8-0.5,12.3s0.2,10.6,0.5,12.3c0.3,1.7,0.7,2.6,1.2,2.6s0.9-0.9,1.2-2.6
		c0.3-1.7,0.4-5.8,0.4-12.3s-0.1-10.6-0.4-12.3C1581.6,1228.9,1581.2,1228,1580.6,1228z"/>
	<path d="M1591.9,1242.9c0-5.1,0.3-9.2,0.9-12.5s1.3-5.7,2.3-7.3c0.9-1.6,2.1-2.4,3.4-2.4c1.9,0,3.5,1.9,4.7,5.7
		c1.2,3.8,1.8,9.2,1.8,16.2c0,7.1-0.6,12.6-1.9,16.6c-1.1,3.5-2.6,5.3-4.6,5.3c-1.9,0-3.5-1.7-4.6-5.2
		C1592.6,1255.3,1591.9,1249.8,1591.9,1242.9z M1594.7,1242.6c0,4.9,0.4,8.5,1.1,11c0.7,2.4,1.6,3.7,2.7,3.7s1.9-1.2,2.6-3.6
		s1.1-6.1,1.1-11.2c0-4.9-0.3-8.6-1-10.9c-0.7-2.4-1.6-3.5-2.7-3.5s-2,1.2-2.7,3.6C1595.1,1233.9,1594.7,1237.6,1594.7,1242.6z"/>
	<path d="M1607.1,1263.8v-42.4h9.2v7.2h-6.5v10h5.6v7.2h-5.6v18L1607.1,1263.8L1607.1,1263.8z"/>
	<path d="M1626.8,1263.8v-35.2h-4v-7.2h10.7v7.2h-4v35.2H1626.8z"/>
	<path d="M1635.2,1263.8v-42.4h2.7v16.7h5.3v-16.7h2.7v42.4h-2.7v-18.5h-5.3v18.5H1635.2z"/>
	<path d="M1648.7,1263.8v-42.4h10v7.2h-7.3v9.4h6.7v7.1h-6.7v11.5h7.5v7.2L1648.7,1263.8L1648.7,1263.8z"/>
	<path d="M1666.5,1263.8v-42.1h2.7v34.9h6.7v7.2H1666.5z"/>
	<path d="M1677.3,1242.9c0-5.1,0.3-9.2,0.9-12.5s1.3-5.7,2.3-7.3c0.9-1.6,2.1-2.4,3.4-2.4c1.9,0,3.5,1.9,4.7,5.7
		c1.2,3.8,1.8,9.2,1.8,16.2c0,7.1-0.6,12.6-1.9,16.6c-1.1,3.5-2.6,5.3-4.6,5.3c-1.9,0-3.5-1.7-4.6-5.2
		C1678,1255.3,1677.3,1249.8,1677.3,1242.9z M1680.1,1242.6c0,4.9,0.4,8.5,1.1,11c0.7,2.4,1.6,3.7,2.7,3.7s1.9-1.2,2.6-3.6
		s1.1-6.1,1.1-11.2c0-4.9-0.3-8.6-1-10.9c-0.7-2.4-1.6-3.5-2.7-3.5s-2,1.2-2.7,3.6C1680.5,1233.9,1680.1,1237.6,1680.1,1242.6z"/>
	<path d="M1694.4,1263.8l-3.2-42.4h2.8l2,29.1l2.5-29.1h3.2l2.4,29.6l2.1-29.6h2.7l-3.3,42.4h-2.9l-2.7-31.7l-2.7,31.7H1694.4z"/>
	<path d="M1710.2,1263.8v-42.4h10v7.2h-7.3v9.4h6.7v7.1h-6.7v11.5h7.5v7.2L1710.2,1263.8L1710.2,1263.8z"/>
	<path d="M1722,1250l2.6-0.8c0.3,5.4,1.3,8.1,2.9,8.1c0.8,0,1.5-0.6,1.9-1.7c0.5-1.1,0.7-2.5,0.7-4.1c0-1-0.1-1.8-0.2-2.5
		s-0.4-1.2-0.7-1.7c-0.3-0.4-1.1-1.2-2.4-2.2c-1.2-0.9-2-1.9-2.5-2.9c-0.5-1.1-1-2.5-1.3-4.2s-0.5-3.6-0.5-5.6
		c0-2.3,0.2-4.4,0.6-6.2c0.4-1.8,1-3.2,1.7-4.2c0.7-0.9,1.6-1.4,2.6-1.4c1.6,0,2.8,1.1,3.7,3.3c0.9,2.2,1.4,5.4,1.4,9.5l-2.7,0.4
		c-0.1-2.3-0.4-3.9-0.8-4.8s-1-1.4-1.7-1.4s-1.3,0.4-1.7,1.2c-0.4,0.8-0.6,1.8-0.6,2.9c0,1.2,0.2,2.1,0.5,2.9s1.2,1.7,2.5,2.6
		c1.4,1,2.3,2.1,3,3.2c0.6,1.1,1.1,2.6,1.4,4.4s0.5,3.9,0.5,6.5c0,3.7-0.4,6.8-1.3,9.3s-2.2,3.8-4.1,3.8
		C1724.2,1264.6,1722.3,1259.7,1722,1250z"/>
	<path d="M1738.2,1263.8v-35.2h-4v-7.2h10.7v7.2h-4v35.2H1738.2z"/>
	<path d="M1751.8,1263.8v-42.4h4.4c1.6,0,2.7,0.2,3.2,0.6c0.8,0.7,1.5,2.1,2,4.2s0.8,4.9,0.8,8.3c0,3.1-0.2,5.6-0.7,7.7
		c-0.4,2.1-1,3.5-1.7,4.4c-0.7,0.8-1.8,1.3-3.5,1.3h-1.8v16L1751.8,1263.8L1751.8,1263.8z M1754.5,1228.6v12.1h1.5
		c1,0,1.7-0.2,2.1-0.6s0.7-1,0.9-2c0.2-1,0.3-2.1,0.3-3.5s-0.1-2.6-0.4-3.6s-0.5-1.6-0.9-1.9s-1.1-0.5-2.2-0.5H1754.5z"/>
	<path d="M1775,1263.8h-2.9l-1.2-9.6h-5.4l-1.1,9.6h-2.9l5.2-42.4h2.9L1775,1263.8z M1770.1,1247.1l-1.9-15.7l-1.8,15.7H1770.1z"/>
	<path d="M1778.3,1263.8V1246l-4.9-24.6h3.2l3.2,16.8l3.1-16.8h3.1l-4.9,24.6v17.8H1778.3z"/>
	<path d="M1787.2,1263.8v-42.4h2.7v42.4H1787.2z"/>
	<path d="M1792.5,1263.8v-42.4h2.6l5.5,28.3v-28.3h2.5v42.4h-2.7l-5.4-27.7v27.7H1792.5z"/>
	<path d="M1812.2,1248.3v-7.2h5.8v16.9c-0.6,1.8-1.4,3.3-2.5,4.6c-1.1,1.3-2.2,1.9-3.2,1.9c-1.3,0-2.5-0.8-3.5-2.5s-1.8-4.2-2.4-7.6
		s-0.9-7.3-0.9-11.9c0-4.7,0.3-8.7,0.9-12s1.4-5.8,2.3-7.4c1-1.6,2.1-2.5,3.4-2.5c1.6,0,2.9,1.1,3.8,3.2c1,2.1,1.6,5.2,1.9,9.3
		l-2.7,1.6c-0.2-2.2-0.6-3.8-1.1-5s-1.2-1.7-1.9-1.7c-1.2,0-2.1,1.2-2.8,3.5s-1.1,5.9-1.1,10.6c0,5.1,0.4,9,1.2,11.7
		c0.7,2.3,1.6,3.4,2.7,3.4c0.5,0,1.1-0.3,1.6-1s1.1-1.5,1.5-2.6v-5.4L1812.2,1248.3L1812.2,1248.3z"/>
	<path d="M1830.6,1221.4h2.7v26.8c0,4.3-0.2,7.6-0.5,9.7s-0.8,3.8-1.5,4.9s-1.5,1.7-2.5,1.7c-1.3,0-2.3-1.1-3-3.4s-1.1-5.8-1.1-10.4
		l2.6-0.9c0,2.5,0.2,4.3,0.4,5.3c0.3,1.4,0.7,2.1,1.3,2.1c0.6,0,1-0.5,1.3-1.5s0.4-3.3,0.4-6.9v-27.4L1830.6,1221.4L1830.6,1221.4z"
		/>
	<path d="M1835.7,1242.9c0-5.1,0.3-9.2,0.9-12.5s1.3-5.7,2.3-7.3c0.9-1.6,2.1-2.4,3.4-2.4c1.9,0,3.5,1.9,4.7,5.7
		c1.2,3.8,1.8,9.2,1.8,16.2c0,7.1-0.6,12.6-1.9,16.6c-1.1,3.5-2.6,5.3-4.6,5.3c-1.9,0-3.5-1.7-4.6-5.2
		C1836.3,1255.3,1835.7,1249.8,1835.7,1242.9z M1838.5,1242.6c0,4.9,0.4,8.5,1.1,11c0.7,2.4,1.6,3.7,2.7,3.7s1.9-1.2,2.6-3.6
		s1.1-6.1,1.1-11.2c0-4.9-0.3-8.6-1-10.9c-0.7-2.4-1.6-3.5-2.7-3.5s-2,1.2-2.7,3.6C1838.8,1233.9,1838.5,1237.6,1838.5,1242.6z"/>
	<path d="M1850.8,1221.4h5.4c1.5,0,2.5,0.3,3.1,1s1.1,1.9,1.5,3.7c0.4,1.8,0.6,3.7,0.6,6c0,2-0.2,3.9-0.5,5.5
		c-0.4,1.6-0.8,2.9-1.4,3.7c0.8,0.7,1.4,2,1.9,3.8c0.4,1.8,0.7,3.9,0.7,6.5c0,3.1-0.3,5.7-0.9,7.8c-0.6,2.1-1.2,3.4-2,3.9
		c-0.5,0.3-1.8,0.5-3.8,0.5h-4.6L1850.8,1221.4L1850.8,1221.4z M1853.5,1228.5v9.8h1.8c1.1,0,1.7,0,2-0.1c0.5-0.2,0.8-0.7,1.1-1.5
		c0.3-0.8,0.4-1.9,0.4-3.3c0-1.3-0.1-2.3-0.3-3.1c-0.2-0.8-0.5-1.3-0.8-1.5s-1.2-0.3-2.6-0.3H1853.5z M1853.5,1245.3v11.3h2.5
		c1.1,0,1.8-0.1,2.1-0.4c0.3-0.3,0.6-0.9,0.8-1.8s0.3-2,0.3-3.3c0-1.4-0.1-2.5-0.3-3.4c-0.2-0.9-0.5-1.5-0.9-1.8s-1.1-0.5-2.3-0.5
		L1853.5,1245.3L1853.5,1245.3z"/>
	<path d="M1863.6,1250l2.6-0.8c0.3,5.4,1.3,8.1,2.9,8.1c0.8,0,1.5-0.6,1.9-1.7c0.5-1.1,0.7-2.5,0.7-4.1c0-1-0.1-1.8-0.2-2.5
		s-0.4-1.2-0.7-1.7c-0.3-0.4-1.1-1.2-2.4-2.2c-1.2-0.9-2-1.9-2.5-2.9c-0.5-1.1-1-2.5-1.3-4.2s-0.5-3.6-0.5-5.6
		c0-2.3,0.2-4.4,0.6-6.2c0.4-1.8,1-3.2,1.7-4.2s1.6-1.4,2.6-1.4c1.6,0,2.8,1.1,3.7,3.3s1.4,5.4,1.4,9.5l-2.7,0.4
		c-0.1-2.3-0.4-3.9-0.8-4.8s-1-1.4-1.7-1.4s-1.3,0.4-1.7,1.2c-0.4,0.8-0.6,1.8-0.6,2.9c0,1.2,0.2,2.1,0.5,2.9
		c0.4,0.8,1.2,1.7,2.5,2.6c1.4,1,2.3,2.1,3,3.2c0.6,1.1,1.1,2.6,1.4,4.4s0.5,3.9,0.5,6.5c0,3.7-0.4,6.8-1.3,9.3s-2.2,3.8-4.1,3.8
		C1865.8,1264.6,1864,1259.7,1863.6,1250z"/>
	<path d="M1890.6,1248.2l2.6,2.6c-0.4,4.7-1.1,8.2-2,10.4c-1,2.2-2.1,3.3-3.5,3.3c-1.7,0-3.2-1.7-4.3-5.2c-1.3-4-1.9-9.5-1.9-16.3
		c0-7.2,0.6-12.9,1.9-17c1.1-3.5,2.6-5.3,4.4-5.3c1.5,0,2.8,1.3,3.8,4c0.7,1.9,1.3,4.7,1.6,8.4l-2.7,2c-0.2-2.3-0.5-4.1-1-5.3
		c-0.5-1.2-1.1-1.8-1.8-1.8c-1,0-1.8,1.1-2.4,3.4c-0.6,2.2-0.9,5.9-0.9,11.1c0,5.3,0.3,9.1,0.9,11.4s1.4,3.4,2.4,3.4
		c0.7,0,1.3-0.7,1.9-2.2C1890,1253.6,1890.4,1251.4,1890.6,1248.2z"/>
	<path d="M1895,1242.9c0-5.1,0.3-9.2,0.9-12.5s1.3-5.7,2.3-7.3c0.9-1.6,2.1-2.4,3.4-2.4c1.9,0,3.5,1.9,4.7,5.7
		c1.2,3.8,1.8,9.2,1.8,16.2c0,7.1-0.6,12.6-1.9,16.6c-1.1,3.5-2.6,5.3-4.6,5.3c-1.9,0-3.5-1.7-4.6-5.2
		C1895.7,1255.3,1895,1249.8,1895,1242.9z M1897.8,1242.6c0,4.9,0.4,8.5,1.1,11c0.7,2.4,1.6,3.7,2.7,3.7s1.9-1.2,2.6-3.6
		s1.1-6.1,1.1-11.2c0-4.9-0.3-8.6-1-10.9c-0.7-2.4-1.6-3.5-2.7-3.5s-2,1.2-2.7,3.6C1898.1,1233.9,1897.8,1237.6,1897.8,1242.6z"/>
	<path d="M1910.2,1263.8v-42.4h2.6l5.5,28.3v-28.3h2.5v42.4h-2.7l-5.4-27.7v27.7H1910.2z"/>
	<path d="M1923,1250l2.6-0.8c0.3,5.4,1.3,8.1,2.9,8.1c0.8,0,1.5-0.6,1.9-1.7c0.5-1.1,0.7-2.5,0.7-4.1c0-1-0.1-1.8-0.2-2.5
		s-0.4-1.2-0.7-1.7c-0.3-0.4-1.1-1.2-2.4-2.2c-1.2-0.9-2-1.9-2.5-2.9c-0.5-1.1-1-2.5-1.3-4.2s-0.5-3.6-0.5-5.6
		c0-2.3,0.2-4.4,0.6-6.2c0.4-1.8,1-3.2,1.7-4.2s1.6-1.4,2.6-1.4c1.6,0,2.8,1.1,3.7,3.3s1.4,5.4,1.4,9.5l-2.7,0.4
		c-0.1-2.3-0.4-3.9-0.8-4.8s-1-1.4-1.7-1.4s-1.3,0.4-1.7,1.2c-0.4,0.8-0.6,1.8-0.6,2.9c0,1.2,0.2,2.1,0.5,2.9
		c0.4,0.8,1.2,1.7,2.5,2.6c1.4,1,2.3,2.1,3,3.2c0.6,1.1,1.1,2.6,1.4,4.4s0.5,3.9,0.5,6.5c0,3.7-0.4,6.8-1.3,9.3s-2.2,3.8-4.1,3.8
		C1925.2,1264.6,1923.4,1259.7,1923,1250z"/>
	<path d="M1936.1,1263.8v-42.4h2.7v42.4H1936.1z"/>
	<path d="M1941.4,1221.4h4.9c1.2,0,2.2,0.4,2.8,1.1c0.6,0.7,1.2,1.9,1.8,3.7c0.5,1.7,1,3.9,1.3,6.7c0.3,2.7,0.5,6.1,0.5,10.2
		c0,3.7-0.2,6.9-0.5,9.6s-0.7,4.9-1.2,6.4c-0.5,1.6-1.1,2.8-1.8,3.6c-0.7,0.8-1.6,1.2-2.7,1.2h-5.1L1941.4,1221.4L1941.4,1221.4z
		 M1944.1,1228.6v28.1h2c0.9,0,1.5-0.2,1.9-0.6s0.7-1.1,1-1.9c0.2-0.9,0.5-2.2,0.6-4.1c0.2-1.9,0.2-4.3,0.2-7.3
		c0-3.1-0.1-5.6-0.3-7.4c-0.2-1.8-0.4-3.2-0.8-4.3c-0.4-1-0.8-1.7-1.3-2.1c-0.4-0.3-1.1-0.4-2.2-0.4L1944.1,1228.6L1944.1,1228.6z"
		/>
	<path d="M1954.9,1263.8v-42.4h10v7.2h-7.3v9.4h6.7v7.1h-6.7v11.5h7.5v7.2L1954.9,1263.8L1954.9,1263.8z"/>
	<path d="M1967.4,1263.8v-42.4h5.7c1.5,0,2.5,0.4,3.1,1.1c0.6,0.8,1.1,2.1,1.5,4s0.6,4.1,0.6,6.8c0,3.3-0.3,6-0.9,8
		s-1.5,3.3-2.6,3.8c0.6,1.1,1.1,2.3,1.4,3.5c0.4,1.3,0.9,3.6,1.6,6.9l1.6,8.3h-3.2l-2-9.2c-0.7-3.3-1.2-5.4-1.4-6.3
		c-0.3-0.8-0.5-1.4-0.8-1.7c-0.3-0.3-0.7-0.5-1.4-0.5h-0.6v17.7L1967.4,1263.8L1967.4,1263.8z M1970.1,1239.4h2c1.2,0,2-0.1,2.3-0.4
		s0.6-0.8,0.8-1.7c0.2-0.8,0.3-2,0.3-3.4c0-1.3-0.1-2.4-0.3-3.3c-0.2-0.8-0.5-1.4-0.8-1.7c-0.3-0.2-1-0.3-2.2-0.3h-2.1
		L1970.1,1239.4L1970.1,1239.4z"/>
	<path d="M1980.9,1263.8v-42.4h10v7.2h-7.3v9.4h6.7v7.1h-6.7v11.5h7.5v7.2L1980.9,1263.8L1980.9,1263.8z"/>
	<path d="M1993.4,1221.4h4.9c1.2,0,2.2,0.4,2.8,1.1c0.6,0.7,1.2,1.9,1.8,3.7c0.5,1.7,1,3.9,1.3,6.7c0.3,2.7,0.5,6.1,0.5,10.2
		c0,3.7-0.2,6.9-0.5,9.6s-0.7,4.9-1.2,6.4c-0.5,1.6-1.1,2.8-1.8,3.6c-0.7,0.8-1.6,1.2-2.7,1.2h-5.1L1993.4,1221.4L1993.4,1221.4z
		 M1996.1,1228.6v28.1h2c0.9,0,1.5-0.2,1.9-0.6s0.7-1.1,1-1.9c0.2-0.9,0.5-2.2,0.6-4.1c0.2-1.9,0.2-4.3,0.2-7.3
		c0-3.1-0.1-5.6-0.3-7.4c-0.2-1.8-0.4-3.2-0.8-4.3c-0.4-1-0.8-1.7-1.3-2.1c-0.4-0.3-1.1-0.4-2.2-0.4L1996.1,1228.6L1996.1,1228.6z"
		/>
	<path d="M2012.2,1263.8v-42.4h2.7v16.7h5.3v-16.7h2.7v42.4h-2.7v-18.5h-5.3v18.5H2012.2z"/>
	<path d="M2025.6,1263.8v-42.4h2.7v42.4H2025.6z"/>
	<path d="M2037.2,1248.3v-7.2h5.8v16.9c-0.6,1.8-1.4,3.3-2.5,4.6c-1.1,1.3-2.2,1.9-3.2,1.9c-1.3,0-2.5-0.8-3.5-2.5s-1.8-4.2-2.4-7.6
		s-0.9-7.3-0.9-11.9c0-4.7,0.3-8.7,0.9-12s1.4-5.8,2.3-7.4c1-1.6,2.1-2.5,3.4-2.5c1.6,0,2.9,1.1,3.8,3.2c1,2.1,1.6,5.2,1.9,9.3
		l-2.7,1.6c-0.2-2.2-0.6-3.8-1.1-5s-1.2-1.7-1.9-1.7c-1.2,0-2.1,1.2-2.8,3.5s-1.1,5.9-1.1,10.6c0,5.1,0.4,9,1.2,11.7
		c0.7,2.3,1.6,3.4,2.7,3.4c0.5,0,1.1-0.3,1.6-1s1.1-1.5,1.5-2.6v-5.4L2037.2,1248.3L2037.2,1248.3z"/>
	<path d="M2045.5,1263.8v-42.4h2.7v16.7h5.3v-16.7h2.7v42.4h-2.7v-18.5h-5.3v18.5H2045.5z"/>
	<path d="M2072.8,1248.2l2.6,2.6c-0.4,4.7-1.1,8.2-2,10.4c-1,2.2-2.1,3.3-3.5,3.3c-1.7,0-3.2-1.7-4.3-5.2c-1.3-4-1.9-9.5-1.9-16.3
		c0-7.2,0.6-12.9,1.9-17c1.1-3.5,2.6-5.3,4.4-5.3c1.5,0,2.8,1.3,3.8,4c0.7,1.9,1.3,4.7,1.6,8.4l-2.7,2c-0.2-2.3-0.5-4.1-1-5.3
		c-0.5-1.2-1.1-1.8-1.8-1.8c-1,0-1.8,1.1-2.4,3.4c-0.6,2.2-0.9,5.9-0.9,11.1c0,5.3,0.3,9.1,0.9,11.4c0.6,2.3,1.4,3.4,2.4,3.4
		c0.7,0,1.3-0.7,1.9-2.2C2072.2,1253.6,2072.6,1251.4,2072.8,1248.2z"/>
	<path d="M2077.2,1242.9c0-5.1,0.3-9.2,0.9-12.5c0.6-3.3,1.3-5.7,2.3-7.3c0.9-1.6,2.1-2.4,3.4-2.4c1.9,0,3.5,1.9,4.7,5.7
		c1.2,3.8,1.8,9.2,1.8,16.2c0,7.1-0.6,12.6-1.9,16.6c-1.1,3.5-2.6,5.3-4.6,5.3c-1.9,0-3.5-1.7-4.6-5.2
		C2077.9,1255.3,2077.2,1249.8,2077.2,1242.9z M2080,1242.6c0,4.9,0.4,8.5,1.1,11c0.7,2.4,1.6,3.7,2.7,3.7c1.1,0,1.9-1.2,2.6-3.6
		c0.7-2.4,1.1-6.1,1.1-11.2c0-4.9-0.3-8.6-1-10.9c-0.7-2.4-1.6-3.5-2.7-3.5c-1.1,0-2,1.2-2.7,3.6
		C2080.4,1233.9,2080,1237.6,2080,1242.6z"/>
	<path d="M2092.4,1263.8v-42.4h2.6l5.5,28.3v-28.3h2.5v42.4h-2.7l-5.4-27.7v27.7H2092.4z"/>
	<path d="M2108.9,1263.8v-35.2h-4v-7.2h10.7v7.2h-4v35.2H2108.9z"/>
	<path d="M2128.1,1263.8h-2.9l-1.2-9.6h-5.4l-1.1,9.6h-2.9l5.2-42.4h2.9L2128.1,1263.8z M2123.1,1247.1l-1.9-15.7l-1.8,15.7H2123.1z
		"/>
	<path d="M2138.1,1248.2l2.6,2.6c-0.4,4.7-1.1,8.2-2,10.4c-1,2.2-2.1,3.3-3.5,3.3c-1.7,0-3.2-1.7-4.3-5.2c-1.3-4-1.9-9.5-1.9-16.3
		c0-7.2,0.6-12.9,1.9-17c1.1-3.5,2.6-5.3,4.4-5.3c1.5,0,2.8,1.3,3.8,4c0.7,1.9,1.3,4.7,1.6,8.4l-2.7,2c-0.2-2.3-0.5-4.1-1-5.3
		c-0.5-1.2-1.1-1.8-1.8-1.8c-1,0-1.8,1.1-2.4,3.4c-0.6,2.2-0.9,5.9-0.9,11.1c0,5.3,0.3,9.1,0.9,11.4c0.6,2.3,1.4,3.4,2.4,3.4
		c0.7,0,1.3-0.7,1.9-2.2C2137.5,1253.6,2137.8,1251.4,2138.1,1248.2z"/>
	<path d="M2146,1263.8v-35.2h-4v-7.2h10.7v7.2h-4v35.2H2146z"/>
	<path d="M2171.1,1263.8h-2.9l-1.2-9.6h-5.4l-1.1,9.6h-2.9l5.2-42.4h2.9L2171.1,1263.8z M2166.1,1247.1l-1.9-15.7l-1.8,15.7H2166.1z
		"/>
	<path d="M2172.6,1263.8v-42.4h2.6l5.5,28.3v-28.3h2.5v42.4h-2.7l-5.4-27.7v27.7H2172.6z"/>
	<path d="M2186,1221.4h4.9c1.2,0,2.2,0.4,2.8,1.1s1.2,1.9,1.8,3.7c0.5,1.7,1,3.9,1.3,6.7c0.3,2.7,0.5,6.1,0.5,10.2
		c0,3.7-0.2,6.9-0.5,9.6s-0.7,4.9-1.2,6.4c-0.5,1.6-1.1,2.8-1.8,3.6c-0.7,0.8-1.6,1.2-2.7,1.2h-5.1V1221.4z M2188.7,1228.6v28.1h2
		c0.9,0,1.5-0.2,1.9-0.6s0.7-1.1,1-1.9c0.2-0.9,0.5-2.2,0.6-4.1c0.2-1.9,0.2-4.3,0.2-7.3c0-3.1-0.1-5.6-0.3-7.4s-0.4-3.2-0.8-4.3
		c-0.4-1-0.8-1.7-1.3-2.1c-0.4-0.3-1.1-0.4-2.2-0.4L2188.7,1228.6L2188.7,1228.6z"/>
	<path d="M2204.8,1263.8v-42.4h10v7.2h-7.3v9.4h6.7v7.1h-6.7v11.5h7.5v7.2L2204.8,1263.8L2204.8,1263.8z"/>
	<path d="M2216.6,1250l2.6-0.8c0.3,5.4,1.3,8.1,2.9,8.1c0.8,0,1.5-0.6,1.9-1.7c0.5-1.1,0.7-2.5,0.7-4.1c0-1-0.1-1.8-0.2-2.5
		s-0.4-1.2-0.7-1.7c-0.3-0.4-1.1-1.2-2.4-2.2c-1.2-0.9-2-1.9-2.5-2.9c-0.5-1.1-1-2.5-1.3-4.2s-0.5-3.6-0.5-5.6
		c0-2.3,0.2-4.4,0.6-6.2c0.4-1.8,1-3.2,1.7-4.2s1.6-1.4,2.6-1.4c1.6,0,2.8,1.1,3.7,3.3s1.4,5.4,1.4,9.5l-2.7,0.4
		c-0.1-2.3-0.4-3.9-0.8-4.8c-0.4-0.9-1-1.4-1.7-1.4s-1.3,0.4-1.7,1.2c-0.4,0.8-0.6,1.8-0.6,2.9c0,1.2,0.2,2.1,0.5,2.9
		c0.4,0.8,1.2,1.7,2.5,2.6c1.4,1,2.3,2.1,3,3.2c0.6,1.1,1.1,2.6,1.4,4.4c0.3,1.8,0.5,3.9,0.5,6.5c0,3.7-0.4,6.8-1.3,9.3
		c-0.9,2.5-2.2,3.8-4.1,3.8C2218.8,1264.6,2217,1259.7,2216.6,1250z"/>
	<path d="M2229.1,1250l2.6-0.8c0.3,5.4,1.3,8.1,2.9,8.1c0.8,0,1.5-0.6,1.9-1.7c0.5-1.1,0.7-2.5,0.7-4.1c0-1-0.1-1.8-0.2-2.5
		s-0.4-1.2-0.7-1.7c-0.3-0.4-1.1-1.2-2.4-2.2c-1.2-0.9-2-1.9-2.5-2.9c-0.5-1.1-1-2.5-1.3-4.2s-0.5-3.6-0.5-5.6
		c0-2.3,0.2-4.4,0.6-6.2c0.4-1.8,1-3.2,1.7-4.2s1.6-1.4,2.6-1.4c1.6,0,2.8,1.1,3.7,3.3c0.9,2.2,1.4,5.4,1.4,9.5l-2.7,0.4
		c-0.1-2.3-0.4-3.9-0.8-4.8c-0.4-0.9-1-1.4-1.7-1.4s-1.3,0.4-1.7,1.2c-0.4,0.8-0.6,1.8-0.6,2.9c0,1.2,0.2,2.1,0.5,2.9
		c0.4,0.8,1.2,1.7,2.5,2.6c1.4,1,2.3,2.1,3,3.2c0.6,1.1,1.1,2.6,1.4,4.4c0.3,1.8,0.5,3.9,0.5,6.5c0,3.7-0.4,6.8-1.3,9.3
		c-0.9,2.5-2.2,3.8-4.1,3.8C2231.3,1264.6,2229.5,1259.7,2229.1,1250z"/>
	<path d="M2242.3,1263.8v-42.4h10v7.2h-7.3v9.4h6.7v7.1h-6.7v11.5h7.5v7.2L2242.3,1263.8L2242.3,1263.8z"/>
	<path d="M2254.8,1263.8v-42.4h2.6l5.5,28.3v-28.3h2.5v42.4h-2.7l-5.4-27.7v27.7H2254.8z"/>
	<path d="M2271.3,1263.8v-35.2h-4v-7.2h10.7v7.2h-4v35.2H2271.3z"/>
	<path d="M2279.7,1263.8v-42.4h2.7v42.4H2279.7z"/>
	<path d="M2297.1,1263.8h-2.9l-1.2-9.6h-5.4l-1.1,9.6h-2.9l5.2-42.4h2.9L2297.1,1263.8z M2292.1,1247.1l-1.9-15.7l-1.8,15.7H2292.1z
		"/>
	<path d="M2298.6,1263.8v-42.1h2.7v34.9h6.7v7.2H2298.6z"/>
	<path d="M2314.2,1250l2.6-0.8c0.3,5.4,1.3,8.1,2.9,8.1c0.8,0,1.5-0.6,1.9-1.7c0.5-1.1,0.7-2.5,0.7-4.1c0-1-0.1-1.8-0.2-2.5
		c-0.2-0.7-0.4-1.2-0.7-1.7c-0.3-0.4-1.1-1.2-2.4-2.2c-1.2-0.9-2-1.9-2.5-2.9c-0.5-1.1-1-2.5-1.3-4.2s-0.5-3.6-0.5-5.6
		c0-2.3,0.2-4.4,0.6-6.2c0.4-1.8,1-3.2,1.7-4.2c0.7-0.9,1.6-1.4,2.6-1.4c1.6,0,2.8,1.1,3.7,3.3c0.9,2.2,1.4,5.4,1.4,9.5l-2.7,0.4
		c-0.1-2.3-0.4-3.9-0.8-4.8c-0.4-0.9-1-1.4-1.7-1.4s-1.3,0.4-1.7,1.2c-0.4,0.8-0.6,1.8-0.6,2.9c0,1.2,0.2,2.1,0.5,2.9
		c0.4,0.8,1.2,1.7,2.5,2.6c1.4,1,2.3,2.1,3,3.2c0.6,1.1,1.1,2.6,1.4,4.4c0.3,1.8,0.5,3.9,0.5,6.5c0,3.7-0.4,6.8-1.3,9.3
		c-0.9,2.5-2.2,3.8-4.1,3.8C2316.4,1264.6,2314.5,1259.7,2314.2,1250z"/>
	<path d="M2327.3,1263.8v-42.4h10v7.2h-7.3v9.4h6.7v7.1h-6.7v11.5h7.5v7.2L2327.3,1263.8L2327.3,1263.8z"/>
	<path d="M2339.8,1263.8v-42.4h5.7c1.5,0,2.5,0.4,3.1,1.1c0.6,0.8,1.1,2.1,1.5,4s0.6,4.1,0.6,6.8c0,3.3-0.3,6-0.9,8
		c-0.6,2-1.5,3.3-2.6,3.8c0.6,1.1,1.1,2.3,1.4,3.5c0.4,1.3,0.9,3.6,1.6,6.9l1.6,8.3h-3.2l-2-9.2c-0.7-3.3-1.2-5.4-1.4-6.3
		c-0.3-0.8-0.5-1.4-0.8-1.7c-0.3-0.3-0.7-0.5-1.4-0.5h-0.6v17.7L2339.8,1263.8L2339.8,1263.8z M2342.5,1239.4h2c1.2,0,2-0.1,2.3-0.4
		s0.6-0.8,0.8-1.7c0.2-0.8,0.3-2,0.3-3.4c0-1.3-0.1-2.4-0.3-3.3c-0.2-0.8-0.5-1.4-0.8-1.7c-0.3-0.2-1-0.3-2.2-0.3h-2.1V1239.4z"/>
	<path d="M2356.5,1263.8l-4.8-42.4h2.9l3.4,31.4l3.3-31.4h2.9l-4.8,42.4H2356.5z"/>
	<path d="M2365.5,1263.8v-42.4h2.7v42.4H2365.5z"/>
	<path d="M2379.3,1248.2l2.6,2.6c-0.4,4.7-1.1,8.2-2,10.4c-1,2.2-2.1,3.3-3.5,3.3c-1.7,0-3.2-1.7-4.3-5.2c-1.3-4-1.9-9.5-1.9-16.3
		c0-7.2,0.6-12.9,1.9-17c1.1-3.5,2.6-5.3,4.4-5.3c1.5,0,2.8,1.3,3.8,4c0.7,1.9,1.3,4.7,1.6,8.4l-2.7,2c-0.2-2.3-0.5-4.1-1-5.3
		c-0.5-1.2-1.1-1.8-1.8-1.8c-1,0-1.8,1.1-2.4,3.4c-0.6,2.2-0.9,5.9-0.9,11.1c0,5.3,0.3,9.1,0.9,11.4c0.6,2.3,1.4,3.4,2.4,3.4
		c0.7,0,1.3-0.7,1.9-2.2C2378.7,1253.6,2379.1,1251.4,2379.3,1248.2z"/>
	<path d="M2384.3,1263.8v-42.4h10v7.2h-7.3v9.4h6.7v7.1h-6.7v11.5h7.5v7.2L2384.3,1263.8L2384.3,1263.8z"/>
	<path d="M2396.1,1250l2.6-0.8c0.3,5.4,1.3,8.1,2.9,8.1c0.8,0,1.5-0.6,1.9-1.7c0.5-1.1,0.7-2.5,0.7-4.1c0-1-0.1-1.8-0.2-2.5
		c-0.2-0.7-0.4-1.2-0.7-1.7c-0.3-0.4-1.1-1.2-2.4-2.2c-1.2-0.9-2-1.9-2.5-2.9c-0.5-1.1-1-2.5-1.3-4.2s-0.5-3.6-0.5-5.6
		c0-2.3,0.2-4.4,0.6-6.2c0.4-1.8,1-3.2,1.7-4.2c0.7-0.9,1.6-1.4,2.6-1.4c1.6,0,2.8,1.1,3.7,3.3c0.9,2.2,1.4,5.4,1.4,9.5l-2.7,0.4
		c-0.1-2.3-0.4-3.9-0.8-4.8c-0.4-0.9-1-1.4-1.7-1.4s-1.3,0.4-1.7,1.2c-0.4,0.8-0.6,1.8-0.6,2.9c0,1.2,0.2,2.1,0.5,2.9
		c0.4,0.8,1.2,1.7,2.5,2.6c1.4,1,2.3,2.1,3,3.2c0.6,1.1,1.1,2.6,1.4,4.4c0.3,1.8,0.5,3.9,0.5,6.5c0,3.7-0.4,6.8-1.3,9.3
		c-0.9,2.5-2.2,3.8-4.1,3.8C2398.3,1264.6,2396.5,1259.7,2396.1,1250z"/>
</g>
<text transform="matrix(0.9306 0 0 1 915 680.1572)" class="st0 st12 st20">RESPONSE</text>
<text transform="matrix(1.046 0 0 1 -1183 600.0029)" class="st12" style="font-size:45.6487px;">36% BLACK HOUSEHOLDS HAVE NO BROADBAND ACCESS</text>
<image style="overflow:visible;enable-background:new    ;" width="792" height="612" xlink:href="15A8FAFB.png"  transform="matrix(6.060606e-02 0 0 7.516340e-02 1022 1228)">
</image>
<g id="Layer_2_1_">
</g>
<g id="Layer_3">
	<g id="Layer_4">
	</g>
</g>
<image style="overflow:visible;" width="3840" height="2160" xlink:href="../../Downloads/AdobeStock_264928648.jpeg"  transform="matrix(8.950523e-02 0 0 0.106 1616.2999 657)">
</image>
<g>
	<g>
		<g>
			<defs>
				<rect id="SVGID_5_" x="1654.9" y="651" width="270" height="241"/>
			</defs>
			<clipPath id="SVGID_6_">
				<use xlink:href="#SVGID_5_"  style="overflow:visible;"/>
			</clipPath>
			<g transform="matrix(1 0 0 1 0 0)" class="st21">
				
					<image style="overflow:visible;enable-background:new    ;" width="799" height="513" xlink:href="15A8FAF1.jpeg"  transform="matrix(0.5679 0 0 0.5178 1563.0131 638.7036)">
				</image>
			</g>
		</g>
	</g>
</g>
<rect x="1385.9" y="411" class="st19" width="247.6" height="178"/>
</svg>
